<svg xmlns="http://www.w3.org/2000/svg" width="1024" height="1024"><defs><style>.cls-2{fill-rule:evenodd;fill:#0b4680}</style></defs><path id="Light" d="M1022.79 623.312 911.123 512.11 795.834 512 512 794.633v114.911l111.673 111.196 85.616-85.252-83.754-83.399 227.999-227.035 83.757 83.4 85.499-85.142Z" style="fill-rule:evenodd;fill:#1e8ece"/><path id="Middle" class="cls-2" d="m512.274 389.865 119.328 121.747-119.604 122.029L392.67 511.893l119.604-122.028Z"/><path id="Dark" class="cls-2" d="m.552 399.583 111.814 112.302 115.432.115L512 226.564V110.518L400.181-1.781l-85.726 86.097 83.862 84.226-228.291 229.282-83.864-84.226-85.61 85.985Z"/><path id="path-2" class="cls-2" d="m751.116 145.969 119.329 121.747L750.84 389.745 631.512 267.997l119.604-122.028Z"/><path id="path-3" class="cls-2" d="m273.945 633.528 119.33 121.747-119.6 122.031-119.33-121.75 119.6-122.028Z"/></svg>